<?xml version="1.0" encoding="utf-8"?>
<!-- Generator: Adobe Illustrator 22.1.0, SVG Export Plug-In . SVG Version: 6.00 Build 0)  -->
<svg version="1.1" id="Layer_1" xmlns="http://www.w3.org/2000/svg" xmlns:xlink="http://www.w3.org/1999/xlink" x="0px" y="0px"
	 viewBox="0 0 595.3 595.3" style="enable-background:new 0 0 595.3 595.3;" xml:space="preserve">
<style type="text/css">
	.st0{fill:#8CC4EA;}
	.st1{fill:#8FC1E8;}
	.st2{fill:#93B9E3;}
	.st3{fill:#A59CCD;}
	.st4{fill:#C865A5;}
	.st5{fill:#9DA9D7;}
	.st6{fill:#99B0DB;}
	.st7{fill:#AC92C6;}
	.st8{fill:#97B4DF;}
	.st9{fill:#BD78B3;}
	.st10{fill:#91BCE5;}
	.st11{fill:#A0A4D3;}
	.st12{fill:#B681BA;}
	.st13{fill:#B28BC1;}
	.st14{fill:#D74F96;}
</style>
<g>
	<path class="st0" d="M489.1,425.9c0,18.8-0.2,37.6,0.1,56.4c0.1,5.2-1.6,6.5-6.6,6.4c-17.1-0.3-34.2-0.1-51.3-0.1
		c-2.7,0-5.2-0.5-6.7,3.2c-5.5,13.9-11.4,27.6-17.3,41.4c-1.8,4.1-1.4,9.7-5.2,12.1c-4.2,2.6-8.5-1.7-12.4-3.4
		c-12.9-5.3-26-9.9-38.4-16.3c-4.4-2.3-7.9-3.2-12.4,2.1c-4.2,4.9-9.1,9.9-14.3,14.2c-5.8,4.8-10.8,10.7-15.7,16.4
		c-2.6,3-6,4.7-8.7,7.4c-1.5,1.5-2.6-0.1-3.8-1.1c-6.8-5.7-12.5-12.4-18.9-18.5c-5.5-5.2-9.9-11.5-16.3-15.8
		c-0.9-0.6-1.7-1.3-2.4-2.1c-4.3-5-8-5.9-13-2c-2.7,2.1-5.8,2.6-8.6,3.8c-12.1,5.2-24.3,9.9-36.4,15c-4,1.7-6.1,0.6-7.2-3.2
		c-3.8-13.1-11-24.7-15.3-37.6c-1.4-4.3-4.2-8.2-5.5-12.7c-0.9-3.2-3.7-3-6.3-3c-17.1,0-34.2-0.1-51.3,0.1c-5,0.1-6.7-1.2-6.6-6.4
		c0.3-18.8,0.1-37.6,0.1-56.4c1.7-2.4,4.2-1.6,6.5-1.6c122.4,0,244.8,0,367.1,0C484.9,424.3,487.5,423.5,489.1,425.9z"/>
	<path class="st1" d="M489.1,425.9c-1.7-2.4-4.2-1.6-6.5-1.6c-122.4,0-244.8,0-367.1,0c-2.2,0-4.8-0.8-6.5,1.6
		c-10.5-4.3-21.1-8.4-31.5-13c-7.3-3.3-14.4-6.8-22.1-9.2c-2.2-0.7-5-1.8-3.5-4.8c3.9-8.1,4.7-17.6,10.8-24.8c1.9,0,3.8,0.1,5.8,0.1
		c153.7,0,307.5,0,461.2,0c1.9,0,3.8-0.1,5.8-0.1c6.1,7.1,6.9,16.6,10.8,24.7c1.4,3-1.3,4.1-3.6,4.8c-12.7,3.9-24.3,10.7-36.8,15.1
		C500.2,420.8,494.7,423.5,489.1,425.9z"/>
	<path class="st2" d="M69.4,356.3c-0.2-2.2,1.9-3.2,2.5-5c1.8-4.7,3.8-8.4-2.2-12.9c-4.6-3.4-8.8-8.2-12.7-12.9
		c161.4,0,322.8,0,484.2,0c-4.1,4.7-8.7,9-13.1,13.4c-5,5.1-6,7.7-1.4,13c1.2,1.4,2.2,2.5,2.1,4.3c-3.5,1-7.1,1.3-10.7,1.3
		c-146,0-292,0-438,0C76.4,357.6,72.9,357.3,69.4,356.3z"/>
	<path class="st3" d="M540.5,212.7c-5,9.4-7.9,19.6-11.8,29.4c-2.8-2.3-6.2-2.5-9.6-2.5c-146.6,0-293.2,0-439.9,0
		c-3.5,0-6.8,0.3-9.6,2.5c-3.9-9.8-7.9-19.6-11.8-29.4C218.6,212.7,379.6,212.7,540.5,212.7z"/>
	<path class="st4" d="M417.3,88.2c1.4,6.5,7.1,11,7.9,17.8c0.4,3.1,3.6,2.3,5.8,2.3c17.4,0,34.9,0.2,52.3-0.1c4.8-0.1,7.2,1,6.6,6.3
		c-0.5,4.4,0.6,8.9-0.7,13.3c-65.6,0-131.2,0.1-196.9,0.1c-61.1,0-122.3-0.1-183.4-0.1c-1.3-5.3-0.4-10.6-0.6-15.9
		c-0.2-4.7,3.5-4,6.3-4.1c16.9-0.1,33.7-0.3,50.6,0.1c5.5,0.1,8-1.6,9.4-7c1.2-4.5,3.9-8.6,6-12.9C259.6,88.2,338.4,88.2,417.3,88.2
		z"/>
	<path class="st5" d="M48.2,280.2c9.2-7.9,16.6-17.8,26.2-25.3c2.1,1.3,4.4,1.4,6.8,1.4c147.5,0,295-0.1,442.4-0.1
		c8.5,7.7,17,15.4,25.5,23.1c-1.6,3.3-4.6,2.6-7.3,2.6c-161.9,0-323.8,0-485.7,0C53.4,281.9,50.7,281.8,48.2,280.2z"/>
	<path class="st6" d="M48.2,280.2c2.4,1.6,5.2,1.7,8,1.7c161.9,0,323.8,0,485.7,0c2.7,0,5.7,0.8,7.3-2.6c2.7,6.7,8.9,10.6,13.9,15
		c4.6,4.1,3,6.1,0.2,9.2c-0.8,0.9-1.7,1.8-2.5,2.7c-2.9-1.8-6.2-1.3-9.4-1.3c-168,0-336,0-503.9,0c-1.9,0-3.8,0-5.8,0
		c-1.8,0-2.8,0.9-3,2.6c-3.3-1.5-4.1-5.3-6.6-7.5c-1.9-1.7,0.1-2.9,1-4.2C37.1,289.6,43.7,285.9,48.2,280.2z"/>
	<path class="st7" d="M540.5,212.7c-160.9,0-321.8,0-482.7,0c-1.9-4.4-3.9-8.9-5.7-13.3c-1.3-3,0.1-4.9,3-5.8
		c5.6-1.8,11.2-3.6,16.7-5.4c45.7,0,91.5,0.1,137.2,0.1c105.8,0,211.6-0.1,317.4-0.1c6.4,0.6,11.9,4.2,17.9,6
		c2.4,0.7,2.7,2.6,1.9,4.6C544.4,203.4,542.4,208.1,540.5,212.7z"/>
	<path class="st8" d="M38.7,307.6c0.2-1.8,1.2-2.6,3-2.6c1.9,0,3.8,0,5.8,0c168,0,336,0,503.9,0c3.2,0,6.4-0.6,9.4,1.3
		c-6.5,6.4-13.1,12.8-19.6,19.2c-161.4,0-322.8,0-484.2,0C50.9,319.6,44.8,313.6,38.7,307.6z"/>
	<path class="st9" d="M109,127.9c61.1,0,122.3,0.1,183.4,0.1c65.6,0,131.2-0.1,196.9-0.1c1.1,8.1,1,16.3,0,24.4
		c-126.8,0-253.6,0-380.4,0C107.9,144.2,107.8,136,109,127.9z"/>
	<path class="st10" d="M69.4,356.3c3.5,1,7.1,1.3,10.7,1.3c146,0,292,0,438,0c3.7,0,7.2-0.3,10.7-1.3c2.9,5.7,5.1,11.6,6.7,17.8
		c-1.9,0-3.8,0.1-5.8,0.1c-153.7,0-307.5,0-461.2,0c-1.9,0-3.8-0.1-5.8-0.1C64.2,367.9,66.4,361.9,69.4,356.3z"/>
	<path class="st11" d="M523.7,256.2c-147.5,0-295,0-442.4,0.1c-2.4,0-4.7-0.1-6.8-1.4c-0.1-4.9-2.7-8.8-5-12.8
		c2.8-2.3,6.2-2.5,9.6-2.5c146.6,0,293.2,0,439.9,0c3.5,0,6.8,0.3,9.6,2.5C526.1,246.5,523.3,250.8,523.7,256.2z"/>
	<path class="st12" d="M108.9,152.3c126.8,0,253.6,0,380.4,0c1.4,6.4,0.2,12.9,0.7,19.4c-127.2,0-254.5,0-381.7,0
		C108.7,165.2,107.5,158.7,108.9,152.3z"/>
	<path class="st13" d="M108.2,171.6c127.2,0,254.5,0,381.7,0c12.3,4.1,23.3,11.1,35.7,14.9c0.4,0.1,0.5,1.1,0.7,1.7
		c-105.8,0-211.6,0.1-317.4,0.1c-45.7,0-91.5-0.1-137.2-0.1c0.1-2.8,2.6-2.4,4.2-3C86.6,180.6,97.4,176.1,108.2,171.6z"/>
	<path class="st14" d="M417.3,88.2c-78.8,0-157.7,0-236.5-0.1c2.8-12.1,10-22.4,13.5-34.2c1.4-4.6,4.5-2.5,7.2-1.7
		c11.5,3.6,22.2,9.4,33.4,13.6c4.9,1.9,10,3.3,14,7c2.6,2.4,5.5,1.9,7.9-0.6c11.3-11.7,22.6-23.5,33.9-35.2c2-2.1,4.6-3.7,6.8-5.6
		c1.7-1.5,2.6-0.4,3.8,0.7c6.7,6,12.8,12.5,19.2,18.8c5.3,5.3,9.7,11.7,16.2,15.8c0.9,0.6,2.1,1.3,2.3,2.1c2.5,8.8,8.1,4.6,12.4,2.5
		c15.2-7.3,30.8-13.5,46.5-19.6c3.7-1.5,5.4-0.1,6.4,3.5C407.6,66.6,414.6,76.6,417.3,88.2z"/>
</g>
</svg>
